<svg width="576" height="460" viewBox="0 0 576 460" fill="none" xmlns="http://www.w3.org/2000/svg">
<path d="M559.512 229.802L403.2 201.214L485.352 262.928C494.424 271.984 487.998 287.464 475.173 287.464H274.743C283.239 263.745 288 238.526 288 212.552V174.575L395.757 95.8723C417.195 81.6051 445.518 83.2852 465.111 99.9961L570.771 204.52C581.913 213.801 573.876 231.851 559.512 229.802ZM58.329 260.439L148.923 215.239C156.097 211.658 162.131 206.154 166.348 199.343C170.565 192.533 172.799 184.684 172.8 176.678V143.714H115.2L89.919 164.046C84.519 169.436 77.193 172.464 69.552 172.464H41.679C36.3307 172.464 31.0881 170.977 26.5387 168.17C21.9893 165.362 18.3127 161.346 15.921 156.571L3.04201 130.857C0.650532 126.082 -0.36189 120.736 0.118159 115.419C0.598207 110.101 2.55178 105.022 5.76002 100.751L72.837 11.4641C78.282 4.22266 86.814 0 95.877 0H309.582C315.999 0 319.212 7.69961 314.676 12.2277L259.2 57.4641L312.822 79.7812C318.132 82.4316 318.132 89.9875 312.822 92.6379L259.2 114.964V212.552C259.2 277.312 226.773 337.786 172.8 373.714C348.831 379.832 482.904 410.559 563.49 428.438C570.798 430.055 576 436.533 576 444.008C576 452.812 568.845 460 560.016 460H110.844C53.883 460.009 3.19499 417.27 0.152985 360.489C-2.11501 318.011 20.61 279.27 58.329 260.439ZM135.738 59.5215L94.653 69.7727C97.128 79.5746 105.876 86.7441 116.37 86.1781C128.034 85.5402 139.635 74.9207 135.738 59.5215Z" fill="black"/>
</svg>
